<svg width="394" height="117" viewBox="0 0 394 117" fill="none" xmlns="http://www.w3.org/2000/svg">
<g opacity="0.5">
<path d="M188.76 104.596C189.455 104.607 190.054 104.79 190.556 105.145C191.063 105.5 191.44 105.994 191.685 106.625C191.93 107.257 192.019 107.953 191.95 108.714L191.925 108.908C191.753 110.284 191.243 111.383 190.393 112.206C189.549 113.024 188.531 113.418 187.34 113.39C186.576 113.379 185.917 113.176 185.364 112.781C184.811 112.381 184.406 111.842 184.149 111.166C183.898 110.484 183.818 109.74 183.91 108.934L183.944 108.68L183.987 108.299C184.209 106.411 184.739 104.872 185.578 103.682C186.422 102.493 187.534 101.76 188.914 101.484L189.88 101.306C190.741 101.12 191.243 100.714 191.386 100.089H192.66C192.603 100.63 192.466 101.07 192.25 101.408C192.039 101.74 191.736 102.011 191.343 102.22C190.949 102.422 190.288 102.614 189.358 102.795C188.429 102.975 187.665 103.324 187.066 103.843C186.467 104.362 185.985 105.092 185.62 106.033C186.584 105.052 187.63 104.573 188.76 104.596ZM188.383 105.873C187.659 105.856 187.037 106.09 186.518 106.574C186 107.054 185.663 107.713 185.509 108.553L185.449 108.951L185.424 109.669C185.441 110.413 185.62 111.008 185.962 111.454C186.31 111.893 186.792 112.119 187.408 112.13C188.189 112.147 188.845 111.865 189.375 111.284C189.912 110.704 190.254 109.85 190.402 108.722C190.482 107.865 190.342 107.183 189.983 106.676C189.624 106.163 189.099 105.895 188.409 105.873H188.383Z" fill="white"/>
<path d="M198.058 103.902C198.833 103.914 199.498 104.122 200.051 104.528C200.604 104.934 201.012 105.495 201.274 106.211C201.542 106.921 201.633 107.699 201.548 108.545L201.531 108.731C201.422 109.621 201.154 110.428 200.726 111.149C200.299 111.865 199.746 112.423 199.067 112.823C198.388 113.224 197.644 113.412 196.834 113.39C196.065 113.379 195.4 113.17 194.841 112.764C194.288 112.358 193.883 111.806 193.627 111.107C193.37 110.408 193.279 109.638 193.353 108.798C193.439 107.851 193.698 107 194.131 106.245C194.565 105.489 195.121 104.906 195.799 104.494C196.484 104.077 197.236 103.88 198.058 103.902ZM194.91 108.807C194.87 109.162 194.87 109.531 194.91 109.915C194.967 110.58 195.166 111.11 195.509 111.504C195.856 111.899 196.318 112.105 196.894 112.122C197.408 112.138 197.881 112.014 198.314 111.749C198.748 111.479 199.113 111.073 199.409 110.532C199.706 109.991 199.897 109.39 199.982 108.731C200.028 108.212 200.036 107.775 200.008 107.42C199.94 106.738 199.731 106.2 199.383 105.805C199.036 105.41 198.574 105.202 197.998 105.179C197.199 105.162 196.521 105.472 195.962 106.109C195.403 106.746 195.058 107.581 194.927 108.612L194.91 108.807Z" fill="white"/>
<path d="M211.547 104.071L209.939 113.221H208.382L209.768 105.365H206.723L206.03 108.494L205.842 109.407C205.539 110.771 205.117 111.744 204.576 112.324C204.034 112.905 203.338 113.204 202.489 113.221H201.821L201.975 111.851L202.309 111.834C202.862 111.8 203.315 111.558 203.669 111.107C204.023 110.65 204.291 109.931 204.473 108.951L204.627 108.08L205.465 104.071H211.547Z" fill="white"/>
<path d="M215.208 107.225L217.235 107.242C218.245 107.248 219.026 107.516 219.579 108.046C220.132 108.57 220.378 109.263 220.315 110.126C220.252 111.056 219.873 111.806 219.177 112.375C218.487 112.939 217.603 113.221 216.525 113.221H212.616L214.224 104.071H215.773L215.208 107.225ZM214.994 108.502L214.387 111.944L216.577 111.952C217.187 111.941 217.683 111.778 218.065 111.462C218.453 111.141 218.684 110.715 218.758 110.185C218.821 109.695 218.727 109.3 218.476 109.001C218.231 108.697 217.86 108.533 217.364 108.511L214.994 108.502Z" fill="white"/>
<path d="M225.088 104.071L223.711 111.944H226.987L228.364 104.071H229.912L228.527 111.944H231.794L233.18 104.071H234.737L233.129 113.221H221.932L223.54 104.071H225.088Z" fill="white"/>
<path d="M239.621 113.39C238.469 113.367 237.568 112.947 236.918 112.13C236.268 111.313 235.994 110.267 236.097 108.993L236.139 108.629C236.236 107.722 236.507 106.893 236.952 106.143C237.403 105.393 237.95 104.83 238.594 104.452C239.239 104.069 239.935 103.885 240.682 103.902C241.634 103.925 242.381 104.238 242.923 104.841C243.464 105.444 243.761 106.262 243.812 107.293C243.829 107.66 243.818 108.026 243.778 108.392L243.684 109.094H237.636C237.534 109.923 237.671 110.628 238.047 111.208C238.429 111.789 238.996 112.091 239.749 112.113C240.662 112.136 241.506 111.73 242.281 110.895L243.171 111.64C242.783 112.192 242.281 112.626 241.665 112.942C241.055 113.252 240.374 113.401 239.621 113.39ZM240.605 105.179C239.966 105.162 239.407 105.376 238.928 105.822C238.455 106.267 238.078 106.93 237.799 107.809L242.298 107.817L242.332 107.682C242.424 106.972 242.307 106.383 241.982 105.915C241.662 105.441 241.203 105.196 240.605 105.179Z" fill="white"/>
<path d="M244.36 115.682L243.47 115.047C244.132 114.241 244.542 113.441 244.702 112.646L244.924 111.369H246.438L246.259 112.511C246.053 113.796 245.42 114.853 244.36 115.682Z" fill="white"/>
<path d="M259.303 113.221H257.747L258.388 109.898C257.687 110.084 257 110.171 256.327 110.16C255.312 110.148 254.536 109.836 254 109.221C253.47 108.607 253.264 107.778 253.384 106.735L253.812 104.063H255.36L254.924 106.744C254.89 107.037 254.887 107.31 254.915 107.564C255.006 108.398 255.503 108.832 256.404 108.866C257.031 108.883 257.735 108.804 258.516 108.629L259.355 104.071H260.912L259.303 113.221Z" fill="white"/>
<path d="M265.744 113.39C264.593 113.367 263.692 112.947 263.041 112.13C262.391 111.313 262.118 110.267 262.22 108.993L262.263 108.629C262.36 107.722 262.631 106.893 263.076 106.143C263.526 105.393 264.074 104.83 264.718 104.452C265.362 104.069 266.058 103.885 266.805 103.902C267.757 103.925 268.504 104.238 269.046 104.841C269.588 105.444 269.885 106.262 269.936 107.293C269.953 107.66 269.942 108.026 269.902 108.392L269.808 109.094H263.76C263.657 109.923 263.794 110.628 264.171 111.208C264.553 111.789 265.12 112.091 265.873 112.113C266.785 112.136 267.629 111.73 268.405 110.895L269.294 111.64C268.907 112.192 268.405 112.626 267.789 112.942C267.179 113.252 266.497 113.401 265.744 113.39ZM266.728 105.179C266.089 105.162 265.531 105.376 265.052 105.822C264.578 106.267 264.202 106.93 263.922 107.809L268.422 107.817L268.456 107.682C268.547 106.972 268.43 106.383 268.105 105.915C267.786 105.441 267.327 105.196 266.728 105.179Z" fill="white"/>
<path d="M276.326 111.132L280.62 104.071H282.587L280.979 113.221H279.431L280.585 106.684L276.582 113.221H275.504L273.725 106.355L272.511 113.221H270.971L272.579 104.071H274.538L276.326 111.132Z" fill="white"/>
<path d="M291.723 112.122C292.276 112.133 292.775 111.975 293.219 111.648C293.664 111.315 293.955 110.881 294.092 110.346L295.555 110.337C295.469 110.912 295.235 111.437 294.853 111.91C294.477 112.384 294.001 112.753 293.425 113.018C292.849 113.283 292.259 113.407 291.654 113.39C290.884 113.379 290.231 113.181 289.695 112.798C289.165 112.409 288.774 111.871 288.523 111.183C288.272 110.49 288.187 109.712 288.267 108.849L288.31 108.426C288.418 107.547 288.677 106.76 289.088 106.067C289.499 105.374 290.035 104.835 290.696 104.452C291.358 104.063 292.088 103.88 292.886 103.902C293.855 103.925 294.631 104.246 295.213 104.866C295.794 105.486 296.085 106.273 296.085 107.225L294.639 107.217C294.628 106.619 294.46 106.137 294.135 105.771C293.81 105.399 293.371 105.202 292.817 105.179C292.013 105.162 291.343 105.458 290.807 106.067C290.277 106.676 289.946 107.527 289.815 108.621L289.789 108.841C289.755 109.201 289.749 109.573 289.772 109.957C289.812 110.616 290 111.138 290.337 111.521C290.673 111.904 291.135 112.105 291.723 112.122Z" fill="white"/>
<path d="M304.151 113.221H302.603L303.989 105.365H299.866L298.48 113.221H296.932L298.54 104.071H305.759L304.151 113.221Z" fill="white"/>
<path d="M311.841 103.902C312.617 103.914 313.281 104.122 313.834 104.528C314.387 104.934 314.795 105.495 315.058 106.211C315.326 106.921 315.417 107.699 315.331 108.545L315.314 108.731C315.206 109.621 314.938 110.428 314.51 111.149C314.082 111.865 313.529 112.423 312.851 112.823C312.172 113.224 311.428 113.412 310.618 113.39C309.848 113.379 309.184 113.17 308.625 112.764C308.072 112.358 307.667 111.806 307.41 111.107C307.154 110.408 307.063 109.638 307.137 108.798C307.222 107.851 307.482 107 307.915 106.245C308.348 105.489 308.904 104.906 309.583 104.494C310.267 104.077 311.02 103.88 311.841 103.902ZM308.693 108.807C308.654 109.162 308.654 109.531 308.693 109.915C308.75 110.58 308.95 111.11 309.292 111.504C309.64 111.899 310.102 112.105 310.678 112.122C311.191 112.138 311.664 112.014 312.098 111.749C312.531 111.479 312.896 111.073 313.193 110.532C313.489 109.991 313.68 109.39 313.766 108.731C313.812 108.212 313.82 107.775 313.792 107.42C313.723 106.738 313.515 106.2 313.167 105.805C312.819 105.41 312.357 105.202 311.781 105.179C310.983 105.162 310.304 105.472 309.746 106.109C309.187 106.746 308.842 107.581 308.711 108.612L308.693 108.807Z" fill="white"/>
<path d="M324.869 108.688C324.755 109.619 324.501 110.456 324.108 111.2C323.714 111.944 323.226 112.502 322.645 112.874C322.063 113.241 321.419 113.415 320.712 113.398C319.64 113.376 318.818 113.018 318.248 112.324L317.418 116.739H315.87L318.094 104.071L319.497 104.063L319.326 105.086C320.09 104.274 321.005 103.88 322.072 103.902C322.961 103.925 323.654 104.249 324.15 104.875C324.646 105.5 324.909 106.363 324.937 107.462C324.943 107.823 324.929 108.173 324.894 108.511L324.869 108.688ZM323.346 108.511L323.389 107.801C323.389 106.977 323.229 106.349 322.91 105.915C322.596 105.475 322.14 105.244 321.541 105.221C320.646 105.199 319.873 105.619 319.223 106.481L318.445 110.87C318.793 111.682 319.417 112.099 320.318 112.122C321.088 112.138 321.741 111.842 322.277 111.234C322.819 110.619 323.175 109.712 323.346 108.511Z" fill="white"/>
<path d="M333.5 105.34H330.489L329.103 113.221H327.563L328.94 105.34H325.989L326.212 104.071H333.722L333.5 105.34Z" fill="white"/>
</g>
<path d="M19.543 74.41C19.8787 72.7247 18.7143 71.5028 16.0498 70.7445L13.186 70.0177C6.40943 68.1428 3.11555 64.8354 3.30437 60.0955C3.40927 56.8724 4.82543 54.2497 7.55285 52.2273C10.3013 50.1839 13.6056 49.1833 17.466 49.2254C21.3053 49.2676 24.4104 50.2893 26.7812 52.2905C29.1519 54.2918 30.3583 56.9567 30.4002 60.2851L21.5886 60.2535C21.6305 57.3253 20.1829 55.8402 17.2457 55.7981C15.861 55.7981 14.6546 56.1456 13.6266 56.8408C12.6196 57.536 12.0006 58.4734 11.7699 59.6532C11.4552 61.3384 12.7245 62.5287 15.5778 63.2239L16.8366 63.5083C19.7318 64.2034 21.9452 65.0039 23.4768 65.9098C25.0083 66.7946 26.1832 67.9005 27.0014 69.2277C27.8407 70.5549 28.2288 72.1454 28.1658 73.9992C28.1029 76.169 27.4001 78.0649 26.0573 79.687C24.7356 81.3091 22.9103 82.5626 20.5815 83.4473C18.2737 84.3321 15.84 84.7429 13.2804 84.6797C9.50401 84.6376 6.35698 83.5527 3.83937 81.425C1.32175 79.2762 0.0419603 76.506 0 73.1144L8.37108 73.1776C8.455 76.4428 10.1964 78.0965 13.5951 78.1387C15.2316 78.1387 16.5743 77.8016 17.6233 77.1275C18.6933 76.4534 19.3332 75.5475 19.543 74.41Z" fill="white"/>
<path d="M64.986 67.0474C64.5454 70.6286 63.6118 73.8096 62.1851 76.5903C60.7585 79.371 58.9857 81.4355 56.8667 82.7837C54.7477 84.132 52.3979 84.7745 49.8174 84.7113C46.5235 84.627 43.9219 83.3947 42.0127 81.0142L38.8972 97.193H30.0226L38.1734 49.8574L46.3556 49.8258L45.7577 53.2701C48.2124 50.4894 51.1076 49.1412 54.4435 49.2254C57.7793 49.3097 60.3704 50.5315 62.2166 52.8909C64.0629 55.2293 65.0489 58.4103 65.1748 62.4339C65.2168 63.74 65.1538 65.2778 64.986 67.0474ZM56.1743 66.3838L56.3632 63.3503C56.4051 61.3068 56.0275 59.6848 55.2302 58.484C54.454 57.2832 53.3105 56.6618 51.8 56.6196C49.2194 56.5354 47.0899 57.6308 45.4115 59.9059L42.8624 73.9992C43.6387 76.1269 45.3066 77.2328 47.8662 77.3171C50.0062 77.3803 51.7895 76.5482 53.2161 74.8208C54.6428 73.0933 55.6288 70.281 56.1743 66.3838Z" fill="white"/>
<path d="M87.2669 49.2254C90.2671 49.2676 92.8476 50.047 95.0086 51.5638C97.1905 53.0595 98.785 55.1345 99.7921 57.7888C100.82 60.4221 101.187 63.3503 100.894 66.5734C100.411 72.0084 98.5228 76.4112 95.2289 79.7818C91.956 83.1313 87.9068 84.764 83.0814 84.6797C80.1232 84.6376 77.5636 83.8792 75.4026 82.4046C73.2417 80.9089 71.6472 78.8444 70.6192 76.2111C69.5911 73.5779 69.224 70.6707 69.5177 67.4897C70.0632 61.844 71.9724 57.3569 75.2453 54.0285C78.5182 50.7001 82.5254 49.099 87.2669 49.2254ZM78.2979 70.7445C78.3399 72.7668 78.8119 74.3678 79.7141 75.5475C80.6162 76.7062 81.8855 77.3066 83.5219 77.3487C86.2494 77.433 88.3893 76.1795 89.9419 73.5884C91.4944 70.9762 92.2182 67.5529 92.1133 63.3187C92.0294 61.2963 91.5364 59.6848 90.6342 58.484C89.7531 57.2621 88.4838 56.6302 86.8263 56.588C84.1828 56.5038 82.0638 57.7572 80.4693 60.3483C78.8958 62.9184 78.172 66.3838 78.2979 70.7445Z" fill="white"/>
<path d="M126.793 58.4208C125.577 58.2101 124.58 58.1048 123.804 58.1048C120.636 58.0205 118.129 59.2108 116.282 61.6755L112.349 84.0477H103.474L109.39 49.8574L117.73 49.8258L116.912 53.9969C119.052 50.7738 121.695 49.1622 124.842 49.1622C125.724 49.1622 126.752 49.3097 127.926 49.6046L126.793 58.4208Z" fill="white"/>
<path d="M146.211 41.452L144.732 49.8574H150.396L149.232 56.5564H143.567L140.672 73.6832C140.546 74.7576 140.63 75.5791 140.924 76.1479C141.217 76.7167 141.931 77.0222 143.064 77.0643C143.399 77.0854 144.301 77.0327 145.77 76.9063L145.141 83.8897C143.567 84.4164 141.868 84.6586 140.042 84.6165C137.126 84.5744 134.955 83.658 133.528 81.8674C132.101 80.0768 131.514 77.6541 131.766 74.5996L134.693 56.5564H129.878L131.042 49.8574H135.857L137.305 41.452H146.211Z" fill="white"/>
<path d="M169.404 74.41C169.74 72.7247 168.575 71.5028 165.911 70.7445L163.047 70.0177C156.271 68.1428 152.977 64.8354 153.166 60.0955C153.27 56.8724 154.687 54.2497 157.414 52.2273C160.162 50.1839 163.467 49.1833 167.327 49.2254C171.167 49.2676 174.272 50.2893 176.642 52.2905C179.013 54.2918 180.219 56.9567 180.261 60.2851L171.45 60.2535C171.492 57.3253 170.044 55.8402 167.107 55.7981C165.722 55.7981 164.516 56.1456 163.488 56.8408C162.481 57.536 161.862 58.4734 161.631 59.6532C161.316 61.3384 162.586 62.5287 165.439 63.2239L166.698 63.5083C169.593 64.2034 171.806 65.0039 173.338 65.9098C174.869 66.7946 176.044 67.9005 176.863 69.2277C177.702 70.5549 178.09 72.1454 178.027 73.9992C177.964 76.169 177.261 78.0649 175.919 79.687C174.597 81.3091 172.771 82.5626 170.443 83.4473C168.135 84.3321 165.701 84.7429 163.142 84.6797C159.365 84.6376 156.218 83.5527 153.701 81.425C151.183 79.2762 149.903 76.506 149.861 73.1144L158.232 73.1776C158.316 76.4428 160.058 78.0965 163.456 78.1387C165.093 78.1387 166.435 77.8016 167.484 77.1275C168.554 76.4534 169.194 75.5475 169.404 74.41Z" fill="white"/>
<path d="M201.85 84.0477C201.577 83.184 201.462 82.1518 201.504 80.951C198.944 83.5211 196.049 84.764 192.818 84.6797C189.839 84.6376 187.363 83.6685 185.391 81.7726C183.44 79.8556 182.527 77.4962 182.653 74.6944C182.8 70.9657 184.353 68.1112 187.311 66.131C190.29 64.1297 194.276 63.1291 199.269 63.1291L203.423 63.1923L203.864 61.1383C203.99 60.4431 204.021 59.7795 203.958 59.1476C203.854 58.1575 203.476 57.3885 202.826 56.8408C202.196 56.272 201.357 55.9771 200.308 55.956C198.923 55.9139 197.748 56.2615 196.783 56.9988C195.818 57.7151 195.199 58.7578 194.927 60.1271L186.02 60.1587C186.167 56.8935 187.657 54.2497 190.489 52.2273C193.343 50.1839 196.857 49.1833 201.032 49.2254C204.892 49.3097 207.913 50.4683 210.095 52.7013C212.277 54.9133 213.19 57.7677 212.833 61.2647L210.221 77.6331L210.064 79.6554C210.022 81.1511 210.2 82.4151 210.599 83.4473L210.567 84.0477H201.85ZM195.021 77.7595C197.581 77.8437 199.815 76.7272 201.724 74.41L202.826 68.5009L199.741 68.4693C196.469 68.5536 194.108 69.5542 192.661 71.4712C192.136 72.1664 191.811 73.0196 191.685 74.0308C191.517 75.1683 191.748 76.0742 192.377 76.7483C193.028 77.4014 193.909 77.7384 195.021 77.7595Z" fill="white"/>
<path d="M239.331 58.4208C238.114 58.2101 237.118 58.1048 236.341 58.1048C233.173 58.0205 230.666 59.2108 228.82 61.6755L224.886 84.0477H216.012L221.928 49.8574L230.268 49.8258L229.449 53.9969C231.589 50.7738 234.233 49.1622 237.38 49.1622C238.261 49.1622 239.289 49.3097 240.464 49.6046L239.331 58.4208Z" fill="white"/>
<path d="M254.72 84.6797C251.741 84.6586 249.097 83.9319 246.789 82.4994C244.503 81.0458 242.793 79.0656 241.66 76.5587C240.527 74.0308 240.086 71.25 240.338 68.2165L240.432 66.9526C240.747 63.6241 241.712 60.5695 243.328 57.7888C244.943 55.0081 247.02 52.8699 249.559 51.3742C252.097 49.8574 254.909 49.1412 257.993 49.2254C262.378 49.3097 265.693 50.9318 267.937 54.0917C270.203 57.2305 271.063 61.212 270.518 66.0362L270.014 69.9229H249.15C249.066 72.1348 249.601 73.9044 250.755 75.2315C251.909 76.5587 253.482 77.2434 255.475 77.2855C258.706 77.3698 261.538 76.1163 263.972 73.5252L268.032 78.5811C266.752 80.5191 264.906 82.0359 262.493 83.1313C260.08 84.2057 257.489 84.7218 254.72 84.6797ZM257.552 56.588C255.916 56.5459 254.458 57.062 253.178 58.1364C251.919 59.2108 250.786 61.0751 249.779 63.7294H261.99L262.178 62.9079C262.304 62.0652 262.315 61.2647 262.21 60.5063C262 59.2845 261.486 58.3365 260.668 57.6624C259.85 56.9672 258.811 56.6091 257.552 56.588Z" fill="white"/>
<path d="M286.694 49.8258L285.938 53.8705C288.666 50.6895 291.97 49.1412 295.852 49.2254C299.061 49.2886 301.432 50.4683 302.964 52.7645C304.495 55.0607 305.051 58.2417 304.632 62.3075L301.044 84.0477H292.169L295.82 62.2127C295.925 61.3911 295.946 60.6433 295.883 59.9691C295.61 57.8204 294.267 56.7144 291.855 56.6512C289.526 56.567 287.438 57.6519 285.592 59.9059L281.344 84.0477H272.469L278.386 49.8574L286.694 49.8258Z" fill="white"/>
<path d="M327.731 84.0477C327.458 83.184 327.343 82.1518 327.385 80.951C324.825 83.5211 321.93 84.764 318.699 84.6797C315.72 84.6376 313.244 83.6685 311.272 81.7726C309.321 79.8556 308.408 77.4962 308.534 74.6944C308.681 70.9657 310.233 68.1112 313.192 66.131C316.171 64.1297 320.157 63.1291 325.15 63.1291L329.304 63.1923L329.745 61.1383C329.871 60.4431 329.902 59.7795 329.839 59.1476C329.734 58.1575 329.357 57.3885 328.706 56.8408C328.077 56.272 327.238 55.9771 326.189 55.956C324.804 55.9139 323.629 56.2615 322.664 56.9988C321.699 57.7151 321.08 58.7578 320.807 60.1271L311.901 60.1587C312.048 56.8935 313.538 54.2497 316.37 52.2273C319.223 50.1839 322.738 49.1833 326.913 49.2254C330.773 49.3097 333.794 50.4683 335.976 52.7013C338.158 54.9133 339.071 57.7677 338.714 61.2647L336.102 77.6331L335.945 79.6554C335.903 81.1511 336.081 82.4151 336.48 83.4473L336.448 84.0477H327.731ZM320.902 77.7595C323.461 77.8437 325.696 76.7272 327.605 74.41L328.706 68.5009L325.622 68.4693C322.349 68.5536 319.989 69.5542 318.542 71.4712C318.017 72.1664 317.692 73.0196 317.566 74.0308C317.398 75.1683 317.629 76.0742 318.258 76.7483C318.909 77.4014 319.79 77.7384 320.902 77.7595Z" fill="white"/>
<line opacity="0.5" x1="174.462" y1="110.473" y2="110.473" stroke="white" stroke-width="0.5"/>
<path d="M346.097 23.6141C346.097 10.5724 356.67 0 369.711 0C382.753 0 393.325 10.5724 393.325 23.6141C393.325 36.6558 382.753 47.2282 369.711 47.2282H346.097V23.6141Z" fill="white"/>
<path d="M363.359 26.4766L361.954 27.7644L361.365 31.3455H358.341L361.193 13.9935H364.227L362.662 23.4151L363.251 22.7486L366.693 19.1223H370.574L365.503 24.3754L368.73 31.3455H365.417L363.359 26.4766Z" fill="#0094FF"/>
<path d="M373.779 28.6908L379.247 28.7134L378.807 31.3455H369.448L369.802 29.1878L376.266 21.7884L371.174 21.7658L371.613 19.1223H380.651L380.308 21.2122L373.779 28.6908Z" fill="#0094FF"/>
</svg>
