<svg width="221" height="70" viewBox="0 0 221 70" fill="none" xmlns="http://www.w3.org/2000/svg">
<path opacity="0.5" d="M108.188 61.7268C108.586 61.7333 108.927 61.8391 109.214 62.0442C109.504 62.2493 109.718 62.5341 109.858 62.8987C109.998 63.2633 110.049 63.6653 110.01 64.1047L109.995 64.217C109.897 65.0113 109.606 65.6461 109.121 66.1213C108.639 66.5933 108.058 66.8212 107.378 66.8049C106.942 66.7984 106.566 66.6812 106.25 66.4534C105.934 66.2222 105.703 65.9114 105.557 65.5208C105.413 65.1269 105.368 64.6972 105.42 64.2317L105.439 64.0852L105.464 63.8655C105.591 62.775 105.894 61.8863 106.372 61.1995C106.854 60.5126 107.489 60.0894 108.276 59.9299L108.828 59.8274C109.32 59.72 109.606 59.4856 109.688 59.1243H110.415C110.382 59.4368 110.304 59.6907 110.181 59.886C110.06 60.078 109.888 60.2343 109.663 60.3547C109.438 60.4719 109.061 60.5826 108.53 60.6868C108 60.7909 107.563 60.9928 107.222 61.2922C106.88 61.5917 106.605 62.0133 106.396 62.5569C106.947 61.9905 107.544 61.7138 108.188 61.7268ZM107.974 62.4641C107.56 62.4543 107.205 62.5894 106.909 62.8694C106.613 63.1461 106.421 63.5269 106.333 64.012L106.299 64.2415L106.284 64.6565C106.294 65.0862 106.396 65.4296 106.592 65.6868C106.79 65.9407 107.065 66.0709 107.417 66.0774C107.863 66.0872 108.237 65.9244 108.54 65.5891C108.846 65.2538 109.041 64.7607 109.126 64.1096C109.172 63.6148 109.092 63.2209 108.887 62.928C108.682 62.6318 108.382 62.4771 107.988 62.4641H107.974ZM113.496 61.3264C113.939 61.3329 114.318 61.4534 114.634 61.6877C114.95 61.9221 115.182 62.246 115.332 62.6594C115.485 63.0696 115.537 63.5188 115.488 64.0071L115.479 64.1145C115.417 64.6288 115.264 65.0943 115.02 65.511C114.775 65.9244 114.46 66.2467 114.072 66.4778C113.685 66.7089 113.26 66.818 112.798 66.8049C112.358 66.7984 111.979 66.678 111.66 66.4436C111.344 66.2092 111.113 65.8902 110.967 65.4866C110.82 65.0829 110.768 64.6386 110.811 64.1536C110.859 63.6067 111.007 63.1152 111.255 62.679C111.502 62.2428 111.82 61.9058 112.207 61.6682C112.598 61.4273 113.027 61.3134 113.496 61.3264ZM111.699 64.1584C111.676 64.3635 111.676 64.5767 111.699 64.7981C111.732 65.1822 111.846 65.4882 112.041 65.7161C112.24 65.9439 112.503 66.0627 112.832 66.0725C113.125 66.0823 113.395 66.0107 113.643 65.8577C113.89 65.7014 114.098 65.467 114.268 65.1545C114.437 64.842 114.546 64.4954 114.595 64.1145C114.621 63.815 114.626 63.5627 114.609 63.3577C114.57 62.9638 114.451 62.6529 114.253 62.425C114.054 62.1972 113.791 62.0767 113.462 62.0637C113.006 62.054 112.619 62.233 112.3 62.6008C111.981 62.9687 111.784 63.4504 111.709 64.0461L111.699 64.1584ZM121.196 61.4241L120.278 66.7073H119.39L120.181 62.1711H118.442L118.047 63.9778L117.939 64.5051C117.767 65.2929 117.526 65.8544 117.217 66.1897C116.908 66.525 116.51 66.6975 116.025 66.7073H115.645L115.732 65.9163L115.923 65.9065C116.239 65.887 116.497 65.747 116.699 65.4866C116.901 65.2229 117.054 64.8079 117.158 64.2415L117.246 63.7385L117.725 61.4241H121.196ZM123.286 63.2454L124.443 63.2551C125.02 63.2584 125.465 63.413 125.781 63.719C126.097 64.0217 126.237 64.4221 126.201 64.9202C126.165 65.4573 125.949 65.8902 125.552 66.219C125.158 66.5445 124.653 66.7073 124.038 66.7073H121.807L122.725 61.4241H123.608L123.286 63.2454ZM123.164 63.9827L122.817 65.97L124.067 65.9749C124.416 65.9683 124.699 65.8739 124.917 65.6917C125.138 65.5061 125.27 65.2603 125.312 64.9543C125.348 64.6711 125.295 64.4433 125.151 64.2708C125.011 64.095 124.8 64.0006 124.517 63.9875L123.164 63.9827ZM128.926 61.4241L128.14 65.97H130.01L130.796 61.4241H131.68L130.889 65.97H132.754L133.545 61.4241H134.434L133.516 66.7073H127.124L128.042 61.4241H128.926ZM137.222 66.8049C136.564 66.7919 136.05 66.5494 135.679 66.0774C135.308 65.6054 135.151 65.0015 135.21 64.2659L135.234 64.0559C135.29 63.5318 135.444 63.0533 135.698 62.6204C135.955 62.1874 136.268 61.8619 136.636 61.6438C137.004 61.4224 137.401 61.3167 137.827 61.3264C138.371 61.3394 138.797 61.5201 139.106 61.8684C139.416 62.2167 139.585 62.6887 139.614 63.2844C139.624 63.496 139.618 63.7076 139.595 63.9192L139.541 64.3245H136.089C136.03 64.803 136.108 65.2099 136.323 65.5452C136.541 65.8805 136.865 66.0546 137.295 66.0676C137.816 66.0806 138.298 65.8463 138.74 65.3645L139.248 65.7942C139.027 66.1132 138.74 66.3639 138.389 66.5461C138.04 66.7252 137.651 66.8114 137.222 66.8049ZM137.783 62.0637C137.419 62.054 137.1 62.1777 136.826 62.4348C136.556 62.692 136.341 63.0745 136.182 63.5823L138.75 63.5872L138.77 63.509C138.822 63.0989 138.755 62.7587 138.569 62.4885C138.387 62.2151 138.125 62.0735 137.783 62.0637ZM139.927 68.1282L139.419 67.762C139.797 67.2965 140.031 66.8342 140.122 66.3752L140.249 65.6379H141.113L141.011 66.2971C140.894 67.0393 140.532 67.6497 139.927 68.1282ZM148.457 66.7073H147.568L147.935 64.7883C147.534 64.8958 147.142 64.9462 146.758 64.9397C146.178 64.9332 145.736 64.7525 145.43 64.3977C145.127 64.0429 145.01 63.5644 145.078 62.9622L145.322 61.4192H146.206L145.957 62.967C145.938 63.1363 145.936 63.2942 145.952 63.4407C146.004 63.9224 146.287 64.1731 146.802 64.1926C147.16 64.2024 147.562 64.1568 148.008 64.0559L148.486 61.4241H149.375L148.457 66.7073ZM152.134 66.8049C151.476 66.7919 150.962 66.5494 150.591 66.0774C150.22 65.6054 150.063 65.0015 150.122 64.2659L150.146 64.0559C150.202 63.5318 150.356 63.0533 150.61 62.6204C150.868 62.1874 151.18 61.8619 151.548 61.6438C151.916 61.4224 152.313 61.3167 152.739 61.3264C153.283 61.3394 153.709 61.5201 154.019 61.8684C154.328 62.2167 154.497 62.6887 154.526 63.2844C154.536 63.496 154.53 63.7076 154.507 63.9192L154.453 64.3245H151.001C150.942 64.803 151.021 65.2099 151.235 65.5452C151.453 65.8805 151.777 66.0546 152.207 66.0676C152.728 66.0806 153.21 65.8463 153.652 65.3645L154.16 65.7942C153.939 66.1132 153.652 66.3639 153.301 66.5461C152.952 66.7252 152.563 66.8114 152.134 66.8049ZM152.695 62.0637C152.331 62.054 152.012 62.1777 151.738 62.4348C151.468 62.692 151.253 63.0745 151.094 63.5823L153.662 63.5872L153.682 63.509C153.734 63.0989 153.667 62.7587 153.481 62.4885C153.299 62.2151 153.037 62.0735 152.695 62.0637ZM158.174 65.5012L160.625 61.4241H161.748L160.83 66.7073H159.946L160.605 62.9329L158.32 66.7073H157.705L156.689 62.7424L155.996 66.7073H155.117L156.035 61.4241H157.153L158.174 65.5012ZM166.963 66.0725C167.279 66.079 167.563 65.9879 167.817 65.7991C168.071 65.607 168.237 65.3564 168.315 65.0471L169.15 65.0422C169.102 65.3743 168.968 65.677 168.75 65.9504C168.535 66.2239 168.263 66.4371 167.935 66.5901C167.606 66.7431 167.269 66.8147 166.924 66.8049C166.484 66.7984 166.112 66.6845 165.806 66.4631C165.503 66.2385 165.28 65.9277 165.137 65.5305C164.993 65.1301 164.945 64.6809 164.99 64.1829L165.015 63.9387C165.076 63.4309 165.225 62.9768 165.459 62.5764C165.693 62.176 165.999 61.8652 166.377 61.6438C166.755 61.4192 167.171 61.3134 167.627 61.3264C168.18 61.3394 168.623 61.525 168.955 61.8831C169.287 62.2411 169.453 62.6952 169.453 63.2454L168.628 63.2405C168.621 62.8954 168.525 62.6171 168.34 62.4055C168.154 62.1907 167.904 62.0767 167.588 62.0637C167.129 62.054 166.746 62.2249 166.44 62.5764C166.138 62.928 165.949 63.4195 165.874 64.051L165.859 64.178C165.84 64.3863 165.837 64.6012 165.85 64.8225C165.872 65.2034 165.98 65.5045 166.172 65.7258C166.364 65.9472 166.628 66.0627 166.963 66.0725ZM174.058 66.7073H173.174L173.965 62.1711H171.611L170.82 66.7073H169.937L170.854 61.4241H174.976L174.058 66.7073ZM178.447 61.3264C178.89 61.3329 179.269 61.4534 179.585 61.6877C179.901 61.9221 180.133 62.246 180.283 62.6594C180.436 63.0696 180.488 63.5188 180.439 64.0071L180.43 64.1145C180.368 64.6288 180.215 65.0943 179.971 65.511C179.727 65.9244 179.411 66.2467 179.023 66.4778C178.636 66.7089 178.211 66.818 177.749 66.8049C177.31 66.7984 176.93 66.678 176.611 66.4436C176.296 66.2092 176.064 65.8902 175.918 65.4866C175.771 65.0829 175.719 64.6386 175.762 64.1536C175.811 63.6067 175.959 63.1152 176.206 62.679C176.453 62.2428 176.771 61.9058 177.158 61.6682C177.549 61.4273 177.979 61.3134 178.447 61.3264ZM176.65 64.1584C176.628 64.3635 176.628 64.5767 176.65 64.7981C176.683 65.1822 176.797 65.4882 176.992 65.7161C177.191 65.9439 177.454 66.0627 177.783 66.0725C178.076 66.0823 178.346 66.0107 178.594 65.8577C178.841 65.7014 179.049 65.467 179.219 65.1545C179.388 64.842 179.497 64.4954 179.546 64.1145C179.572 63.815 179.577 63.5627 179.561 63.3577C179.521 62.9638 179.403 62.6529 179.204 62.425C179.006 62.1972 178.742 62.0767 178.413 62.0637C177.957 62.054 177.57 62.233 177.251 62.6008C176.932 62.9687 176.735 63.4504 176.66 64.0461L176.65 64.1584ZM185.884 64.0901C185.819 64.6272 185.674 65.1106 185.449 65.5403C185.225 65.97 184.946 66.2922 184.614 66.5071C184.282 66.7187 183.914 66.8196 183.511 66.8098C182.899 66.7968 182.43 66.5901 182.104 66.1897L181.631 68.7385H180.747L182.017 61.4241L182.817 61.4192L182.72 62.01C183.156 61.5413 183.678 61.3134 184.287 61.3264C184.795 61.3394 185.19 61.5266 185.474 61.8879C185.757 62.2493 185.907 62.7473 185.923 63.3821C185.926 63.5904 185.918 63.7922 185.898 63.9875L185.884 64.0901ZM185.015 63.9875L185.039 63.5774C185.039 63.1021 184.948 62.7392 184.766 62.4885C184.587 62.2346 184.326 62.1012 183.984 62.0881C183.473 62.0751 183.032 62.3176 182.661 62.8157L182.217 65.3499C182.415 65.8186 182.772 66.0595 183.286 66.0725C183.726 66.0823 184.098 65.9114 184.404 65.5598C184.714 65.205 184.917 64.6809 185.015 63.9875ZM190.811 62.1565H189.092L188.301 66.7073H187.422L188.208 62.1565H186.523L186.65 61.4241H190.938L190.811 62.1565Z" fill="black"/>
<path d="M11.1909 44.6279C11.3831 43.6604 10.7163 42.959 9.19057 42.5236L7.55068 42.1064C3.67022 41.03 1.78405 39.1313 1.89218 36.4102C1.95224 34.5599 2.76318 33.0542 4.32497 31.8932C5.89878 30.7201 7.79096 30.1457 10.0015 30.1699C12.2 30.194 13.9781 30.7806 15.3356 31.9295C16.6932 33.0784 17.384 34.6083 17.408 36.5191L12.3622 36.5009C12.3862 34.8199 11.5573 33.9673 9.87535 33.9431C9.08244 33.9431 8.39165 34.1426 7.80297 34.5417C7.22631 34.9408 6.8719 35.479 6.73975 36.1563C6.55954 37.1238 7.28638 37.807 8.92025 38.2061L9.64108 38.3694C11.299 38.7685 12.5664 39.2281 13.4435 39.7481C14.3205 40.256 14.9932 40.8909 15.4618 41.6529C15.9423 42.4148 16.1646 43.3278 16.1285 44.3921C16.0925 45.6377 15.69 46.7262 14.9212 47.6574C14.1643 48.5886 13.1191 49.3082 11.7855 49.8161C10.464 50.3241 9.07043 50.5599 7.60474 50.5236C5.44226 50.4994 3.64018 49.8766 2.19853 48.6551C0.75687 47.4216 0.0240276 45.8312 0 43.8841L4.79351 43.9204C4.84157 45.795 5.83871 46.7443 7.78495 46.7685C8.72203 46.7685 9.49091 46.575 10.0916 46.188C10.7043 45.801 11.0707 45.281 11.1909 44.6279Z" fill="black"/>
<path d="M37.2128 40.4012C36.9605 42.4571 36.4259 44.2832 35.6089 45.8796C34.792 47.476 33.7768 48.6612 32.5634 49.4352C31.35 50.2092 30.0045 50.578 28.5268 50.5417C26.6406 50.4934 25.1509 49.7859 24.0577 48.4193L22.2736 57.7073H17.1918L21.8591 30.5327L26.5445 30.5145L26.2021 32.4919C27.6077 30.8955 29.2656 30.1215 31.1758 30.1699C33.086 30.2182 34.5697 30.9197 35.627 32.2742C36.6842 33.6166 37.2488 35.4427 37.3209 37.7526C37.3449 38.5024 37.3089 39.3853 37.2128 40.4012ZM32.167 40.0202L32.2751 38.2787C32.2991 37.1056 32.0829 36.1744 31.6264 35.4851C31.1818 34.7957 30.5271 34.4389 29.6621 34.4148C28.1844 34.3664 26.965 34.9953 26.0039 36.3014L24.5442 44.3921C24.9887 45.6136 25.9438 46.2485 27.4095 46.2968C28.6349 46.3331 29.6561 45.8554 30.473 44.8637C31.29 43.8721 31.8546 42.2575 32.167 40.0202Z" fill="black"/>
<path d="M49.9714 30.1699C51.6894 30.194 53.1671 30.6415 54.4045 31.5123C55.654 32.3709 56.567 33.5622 57.1437 35.086C57.7324 36.5977 57.9426 38.2787 57.7744 40.129C57.4981 43.2492 56.4169 45.7768 54.5307 47.7118C52.6565 49.6347 50.3379 50.572 47.5747 50.5236C45.8807 50.4994 44.4151 50.064 43.1776 49.2175C41.9402 48.3588 41.0272 47.1736 40.4385 45.6619C39.8498 44.1502 39.6396 42.4813 39.8078 40.6551C40.1201 37.414 41.2134 34.838 43.0875 32.9272C44.9617 31.0164 47.2563 30.0973 49.9714 30.1699ZM44.8355 42.5236C44.8596 43.6846 45.1299 44.6037 45.6465 45.281C46.1631 45.9461 46.8899 46.2908 47.827 46.315C49.3888 46.3634 50.6142 45.6438 51.5032 44.1563C52.3922 42.6566 52.8067 40.6914 52.7466 38.2606C52.6986 37.0996 52.4163 36.1744 51.8997 35.4851C51.3951 34.7836 50.6682 34.4208 49.7192 34.3966C48.2054 34.3482 46.992 35.0678 46.079 36.5553C45.1779 38.0308 44.7635 40.0202 44.8355 42.5236Z" fill="black"/>
<path d="M72.6055 35.4488C71.9087 35.3278 71.338 35.2674 70.8935 35.2674C69.0794 35.219 67.6438 35.9023 66.5865 37.3173L64.334 50.1608H59.2521L62.64 30.5327L67.4155 30.5145L66.947 32.9091C68.1724 31.0587 69.6861 30.1336 71.4882 30.1336C71.9928 30.1336 72.5814 30.2182 73.2542 30.3875L72.6055 35.4488Z" fill="black"/>
<path d="M83.7242 25.7073L82.8773 30.5327H86.121L85.4542 34.3785H82.2105L80.5526 44.2107C80.4805 44.8275 80.5286 45.2991 80.6968 45.6256C80.865 45.9522 81.2734 46.1275 81.9222 46.1517C82.1144 46.1638 82.631 46.1336 83.472 46.061L83.1115 50.0701C82.2105 50.3724 81.2374 50.5115 80.1922 50.4873C78.5223 50.4631 77.2788 49.9371 76.4619 48.9091C75.645 47.8811 75.3086 46.4903 75.4527 44.7368L77.1287 34.3785H74.3715L75.0383 30.5327H77.7954L78.6244 25.7073H83.7242Z" fill="black"/>
<path d="M97.0055 44.6279C97.1977 43.6604 96.531 42.959 95.0052 42.5236L93.3653 42.1064C89.4849 41.03 87.5987 39.1313 87.7068 36.4102C87.7669 34.5599 88.5778 33.0542 90.1396 31.8932C91.7134 30.7201 93.6056 30.1457 95.8161 30.1699C98.0147 30.194 99.7927 30.7806 101.15 31.9295C102.508 33.0784 103.199 34.6083 103.223 36.5191L98.1769 36.5009C98.2009 34.8199 97.3719 33.9673 95.69 33.9431C94.8971 33.9431 94.2063 34.1426 93.6176 34.5417C93.041 34.9408 92.6865 35.479 92.5544 36.1563C92.3742 37.1238 93.101 37.807 94.7349 38.2061L95.4557 38.3694C97.1136 38.7685 98.3811 39.2281 99.2581 39.7481C100.135 40.256 100.808 40.8909 101.276 41.6529C101.757 42.4148 101.979 43.3278 101.943 44.3921C101.907 45.6377 101.505 46.7262 100.736 47.6574C99.9789 48.5886 98.9337 49.3082 97.6002 49.8161C96.2787 50.3241 94.8851 50.5599 93.4194 50.5236C91.2569 50.4994 89.4548 49.8766 88.0132 48.6551C86.5715 47.4216 85.8387 45.8312 85.8146 43.8841L90.6082 43.9204C90.6562 45.795 91.6534 46.7443 93.5996 46.7685C94.5367 46.7685 95.3056 46.575 95.9062 46.188C96.519 45.801 96.8854 45.281 97.0055 44.6279Z" fill="black"/>
<path d="M115.585 50.1608C115.429 49.6649 115.363 49.0724 115.387 48.383C113.921 49.8584 112.263 50.572 110.413 50.5236C108.707 50.4994 107.289 49.9431 106.16 48.8547C105.043 47.7541 104.52 46.3996 104.592 44.7912C104.676 42.6506 105.565 41.0119 107.259 39.8751C108.965 38.7262 111.248 38.1517 114.107 38.1517L116.486 38.188L116.738 37.0089C116.81 36.6098 116.828 36.2288 116.792 35.866C116.732 35.2976 116.516 34.8562 116.144 34.5417C115.783 34.2152 115.303 34.0459 114.702 34.0338C113.909 34.0096 113.236 34.2092 112.684 34.6324C112.131 35.0436 111.776 35.6423 111.62 36.4284L106.52 36.4465C106.605 34.572 107.458 33.0542 109.079 31.8932C110.713 30.7201 112.726 30.1457 115.116 30.1699C117.327 30.2182 119.057 30.8834 120.306 32.1653C121.556 33.4352 122.078 35.0739 121.874 37.0814L120.378 46.4783L120.288 47.6392C120.264 48.4979 120.366 49.2235 120.595 49.8161L120.577 50.1608H115.585ZM111.674 46.5508C113.14 46.5992 114.42 45.9582 115.513 44.6279L116.144 41.2356L114.377 41.2175C112.503 41.2659 111.152 41.8403 110.323 42.9408C110.022 43.3399 109.836 43.8297 109.764 44.4102C109.668 45.0633 109.8 45.5833 110.161 45.9703C110.533 46.3452 111.038 46.5387 111.674 46.5508Z" fill="black"/>
<path d="M137.048 35.4488C136.351 35.3278 135.78 35.2674 135.336 35.2674C133.521 35.219 132.086 35.9023 131.029 37.3173L128.776 50.1608H123.694L127.082 30.5327L131.858 30.5145L131.389 32.9091C132.614 31.0587 134.128 30.1336 135.93 30.1336C136.435 30.1336 137.024 30.2182 137.696 30.3875L137.048 35.4488Z" fill="black"/>
<path d="M145.86 50.5236C144.154 50.5115 142.64 50.0943 141.318 49.2719C140.009 48.4374 139.03 47.3006 138.381 45.8615C137.732 44.4102 137.48 42.8139 137.624 41.0724L137.678 40.3467C137.858 38.4359 138.411 36.6823 139.336 35.086C140.261 33.4896 141.451 32.2621 142.904 31.4034C144.358 30.5327 145.968 30.1215 147.734 30.1699C150.245 30.2182 152.143 31.1495 153.428 32.9635C154.726 34.7655 155.218 37.0512 154.906 39.8207L154.618 42.0519H142.67C142.622 43.3218 142.928 44.3377 143.589 45.0996C144.25 45.8615 145.151 46.2545 146.292 46.2787C148.142 46.3271 149.764 45.6075 151.158 44.12L153.482 47.0225C152.75 48.1351 151.692 49.0058 150.311 49.6347C148.929 50.2515 147.445 50.5478 145.86 50.5236ZM147.482 34.3966C146.544 34.3724 145.71 34.6687 144.977 35.2855C144.256 35.9023 143.607 36.9726 143.03 38.4964H150.022L150.131 38.0247C150.203 37.541 150.209 37.0814 150.149 36.6461C150.028 35.9446 149.734 35.4004 149.266 35.0134C148.797 34.6143 148.202 34.4087 147.482 34.3966Z" fill="black"/>
<path d="M164.169 30.5145L163.736 32.8365C165.298 31.0104 167.19 30.1215 169.413 30.1699C171.251 30.2061 172.608 30.8834 173.485 32.2016C174.362 33.5198 174.681 35.346 174.441 37.6801L172.386 50.1608H167.304L169.395 37.6256C169.455 37.154 169.467 36.7247 169.431 36.3377C169.275 35.1041 168.506 34.4692 167.124 34.4329C165.791 34.3845 164.595 35.0074 163.538 36.3014L161.105 50.1608H156.023L159.411 30.5327L164.169 30.5145Z" fill="black"/>
<path d="M187.668 50.1608C187.512 49.6649 187.445 49.0724 187.469 48.383C186.004 49.8584 184.346 50.572 182.496 50.5236C180.79 50.4994 179.372 49.9431 178.243 48.8547C177.126 47.7541 176.603 46.3996 176.675 44.7912C176.759 42.6506 177.648 41.0119 179.342 39.8751C181.048 38.7262 183.331 38.1517 186.19 38.1517L188.569 38.188L188.821 37.0089C188.893 36.6098 188.911 36.2288 188.875 35.866C188.815 35.2976 188.599 34.8562 188.226 34.5417C187.866 34.2152 187.385 34.0459 186.785 34.0338C185.992 34.0096 185.319 34.2092 184.766 34.6324C184.214 35.0436 183.859 35.6423 183.703 36.4284L178.603 36.4465C178.687 34.572 179.54 33.0542 181.162 31.8932C182.796 30.7201 184.808 30.1457 187.199 30.1699C189.41 30.2182 191.14 30.8834 192.389 32.1653C193.639 33.4352 194.161 35.0739 193.957 37.0814L192.461 46.4783L192.371 47.6392C192.347 48.4979 192.449 49.2235 192.677 49.8161L192.659 50.1608H187.668ZM183.757 46.5508C185.223 46.5992 186.502 45.9582 187.596 44.6279L188.226 41.2356L186.46 41.2175C184.586 41.2659 183.235 41.8403 182.406 42.9408C182.105 43.3399 181.919 43.8297 181.847 44.4102C181.751 45.0633 181.883 45.5833 182.243 45.9703C182.616 46.3452 183.12 46.5387 183.757 46.5508Z" fill="black"/>
<line opacity="0.5" x1="100" y1="65.25" y2="65.25" stroke="#808080" stroke-width="0.5"/>
<path d="M194 13.5C194 6.04416 200.044 0 207.5 0C214.956 0 221 6.04416 221 13.5C221 20.9558 214.956 27 207.5 27H194V13.5Z" fill="#0094FF"/>
<path d="M203.868 15.1365L203.065 15.8727L202.728 17.92H201L202.63 8H204.365L203.47 13.3863L203.807 13.0052L205.774 10.9321H207.993L205.094 13.9352L206.939 17.92H205.045L203.868 15.1365Z" fill="white"/>
<path d="M209.826 16.4023L212.951 16.4152L212.7 17.92H207.35L207.552 16.6865L211.248 12.4563L208.336 12.4433L208.588 10.9321H213.754L213.558 12.1269L209.826 16.4023Z" fill="white"/>
</svg>
